# xmcd CD database file
#
# Track frame offsets:
#	150
#	19532
#	34759
#	48738
#	71256
#	92369
#	105305
#	124657
#	138122
#	155166
#	173465
#	193064
#	207783
#	222783
#	236658
#	256464
#	275188
#	291599
#	308806
#	326474
#
# Disc length: 4607 seconds
#
# Revision: 1
# Processed by: cddbd v1.5.2PL0 Copyright (c) Steve Scherf et al.
# Submitted via: CDex 1.51
#
DISCID=1e11fd14
DTITLE=The Real Book Play-Along - Volume I L-R CD3
DYEAR=1900
DGENRE=Jazz
TTITLE0=Night Train
TTITLE1=Nuages
TTITLE2=Oleo
TTITLE3=Once I Loved (Amor em Paz) (Love in Peace)
TTITLE4=Once in Love with Amy
TTITLE5=One Note Samba (Samba de Uma Nota So)
TTITLE6=Only Trust Your Heart
TTITLE7=Ornithology
TTITLE8=Out of Nowhere
TTITLE9=Paper Doll
TTITLE10=Passion Dance
TTITLE11=Peace
TTITLE12=Pent Up House
TTITLE13=Peri's Scope
TTITLE14=Prelude to a Kiss
TTITLE15=Quiet Nights of Quiet Stars (Corcovado)
TTITLE16=Recorda-Me
TTITLE17=Red Clay
TTITLE18=Road Song
TTITLE19=Ruby, My Dear
EXTD=
EXTT0=
EXTT1=
EXTT2=
EXTT3=
EXTT4=
EXTT5=
EXTT6=
EXTT7=
EXTT8=
EXTT9=
EXTT10=
EXTT11=
EXTT12=
EXTT13=
EXTT14=
EXTT15=
EXTT16=
EXTT17=
EXTT18=
EXTT19=
PLAYORDER=
